<svg id="visual" viewBox="0 0 1980 1080" width="1980" height="1080" xmlns="http://www.w3.org/2000/svg" xmlns:xlink="http://www.w3.org/1999/xlink" version="1.1"><rect x="0" y="0" width="1980" height="1080" fill="#f1fff6"></rect><path d="M0 516L41.3 536.7C82.7 557.3 165.3 598.7 247.8 621.7C330.3 644.7 412.7 649.3 495.2 636.3C577.7 623.3 660.3 592.7 742.8 571.7C825.3 550.7 907.7 539.3 990.2 540.8C1072.7 542.3 1155.3 556.7 1237.8 555.8C1320.3 555 1402.7 539 1485.2 534C1567.7 529 1650.3 535 1732.8 537.2C1815.3 539.3 1897.7 537.7 1938.8 536.8L1980 536L1980 1081L1938.8 1081C1897.7 1081 1815.3 1081 1732.8 1081C1650.3 1081 1567.7 1081 1485.2 1081C1402.7 1081 1320.3 1081 1237.8 1081C1155.3 1081 1072.7 1081 990.2 1081C907.7 1081 825.3 1081 742.8 1081C660.3 1081 577.7 1081 495.2 1081C412.7 1081 330.3 1081 247.8 1081C165.3 1081 82.7 1081 41.3 1081L0 1081Z" fill="#b3ffbf"></path><path d="M0 782L41.3 775.3C82.7 768.7 165.3 755.3 247.8 752.5C330.3 749.7 412.7 757.3 495.2 760C577.7 762.7 660.3 760.3 742.8 744.2C825.3 728 907.7 698 990.2 701.8C1072.7 705.7 1155.3 743.3 1237.8 756.3C1320.3 769.3 1402.7 757.7 1485.2 751.8C1567.7 746 1650.3 746 1732.8 738.8C1815.3 731.7 1897.7 717.3 1938.8 710.2L1980 703L1980 1081L1938.8 1081C1897.7 1081 1815.3 1081 1732.8 1081C1650.3 1081 1567.7 1081 1485.2 1081C1402.7 1081 1320.3 1081 1237.8 1081C1155.3 1081 1072.7 1081 990.2 1081C907.7 1081 825.3 1081 742.8 1081C660.3 1081 577.7 1081 495.2 1081C412.7 1081 330.3 1081 247.8 1081C165.3 1081 82.7 1081 41.3 1081L0 1081Z" fill="#95f0a2"></path><path d="M0 899L41.3 885.7C82.7 872.3 165.3 845.7 247.8 823.7C330.3 801.7 412.7 784.3 495.2 789.7C577.7 795 660.3 823 742.8 838.5C825.3 854 907.7 857 990.2 864.2C1072.7 871.3 1155.3 882.7 1237.8 884C1320.3 885.3 1402.7 876.7 1485.2 870C1567.7 863.3 1650.3 858.7 1732.8 850.5C1815.3 842.3 1897.7 830.7 1938.8 824.8L1980 819L1980 1081L1938.8 1081C1897.7 1081 1815.3 1081 1732.8 1081C1650.3 1081 1567.7 1081 1485.2 1081C1402.7 1081 1320.3 1081 1237.8 1081C1155.3 1081 1072.7 1081 990.2 1081C907.7 1081 825.3 1081 742.8 1081C660.3 1081 577.7 1081 495.2 1081C412.7 1081 330.3 1081 247.8 1081C165.3 1081 82.7 1081 41.3 1081L0 1081Z" fill="#75e184"></path><path d="M0 996L41.3 981.2C82.7 966.3 165.3 936.7 247.8 938.3C330.3 940 412.7 973 495.2 971.5C577.7 970 660.3 934 742.8 915C825.3 896 907.7 894 990.2 897.8C1072.7 901.7 1155.3 911.3 1237.8 911C1320.3 910.7 1402.7 900.3 1485.2 900.3C1567.7 900.3 1650.3 910.7 1732.8 920.3C1815.3 930 1897.7 939 1938.8 943.5L1980 948L1980 1081L1938.8 1081C1897.7 1081 1815.3 1081 1732.8 1081C1650.3 1081 1567.7 1081 1485.2 1081C1402.7 1081 1320.3 1081 1237.8 1081C1155.3 1081 1072.7 1081 990.2 1081C907.7 1081 825.3 1081 742.8 1081C660.3 1081 577.7 1081 495.2 1081C412.7 1081 330.3 1081 247.8 1081C165.3 1081 82.7 1081 41.3 1081L0 1081Z" fill="#53d266"></path></svg>